<svg xmlns="http://www.w3.org/2000/svg" version="1.1" xmlns:xlink="http://www.w3.org/1999/xlink" xmlns:svgjs="http://svgjs.dev/svgjs" width="2000" height="1247" viewBox="0 0 2000 1247"><g transform="matrix(1,0,0,1,-1.2121212121212466,0.504858299595071)"><svg viewBox="0 0 396 247" data-background-color="#ffffff" preserveAspectRatio="xMidYMid meet" height="1247" width="2000" xmlns="http://www.w3.org/2000/svg" xmlns:xlink="http://www.w3.org/1999/xlink"><g id="tight-bounds" transform="matrix(1,0,0,1,0.2400000000000091,-0.09999999999999432)"><svg viewBox="0 0 395.52 247.2" height="247.2" width="395.52"><g><svg></svg></g><g><svg viewBox="0 0 395.52 247.2" height="247.2" width="395.52"><g transform="matrix(1,0,0,1,75.54432000000001,79.51557069310212)"><svg viewBox="0 0 244.43135999999996 88.16885861379573" height="88.16885861379573" width="244.43135999999996"><g><svg viewBox="0 0 399.46818397176526 144.0922058172745" height="88.16885861379573" width="244.43135999999996"><g transform="matrix(1,0,0,1,155.03682397176524,6.031794003527779)"><svg viewBox="0 0 244.43135999999998 132.02861781021895" height="132.02861781021895" width="244.43135999999998"><g id="textblocktransform"><svg viewBox="0 0 244.43135999999998 132.02861781021895" height="132.02861781021895" width="244.43135999999998" id="textblock"><g><svg viewBox="0 0 244.43135999999998 132.02861781021895" height="132.02861781021895" width="244.43135999999998"><g transform="matrix(1,0,0,1,0,0)"><svg width="244.43135999999998" viewBox="2.2 -36 68.5 37" height="132.02861781021895" data-palette-color="#00acc1"><path d="M31-12.5L31-2.45Q28.15-0.8 25.05 0.1 21.95 1 18.9 1L18.9 1Q15.6 1 12.6-0.13 9.6-1.25 7.25-3.55 4.9-5.85 3.55-9.33 2.2-12.8 2.2-17.5L2.2-17.5Q2.2-23.35 4.65-27.48 7.1-31.6 11.4-33.8 15.7-36 21.2-36L21.2-36Q23.8-36 26.43-35.52 29.05-35.05 31.5-33.85L31.5-33.85Q31.5-31.65 31.08-29.48 30.65-27.3 29.95-25.1L29.95-25.1Q29.8-25.05 29.63-25.05 29.45-25.05 29.3-25.05L29.3-25.05Q28.45-25.05 27.75-25.35L27.75-25.35 27.2-32.15Q23.9-33.4 20.85-33.4L20.85-33.4Q16.8-33.4 13.93-31.23 11.05-29.05 9.53-25.45 8-21.85 8-17.5L8-17.5Q8-12.9 9.33-9.33 10.65-5.75 13.3-3.7 15.95-1.65 19.85-1.65L19.85-1.65Q21.6-1.65 22.9-1.95 24.2-2.25 25.75-2.9L25.75-2.9 25.75-12.5 21.9-13.5Q21.85-13.7 21.85-14.05L21.85-14.05Q21.85-14.65 22.15-15.25L22.15-15.25Q23.5-15.2 25.28-15.1 27.05-15 28.45-15L28.45-15Q29.85-15 31.55-15.1 33.25-15.2 34.6-15.25L34.6-15.25Q34.9-14.65 34.9-14.05L34.9-14.05Q34.9-13.9 34.88-13.78 34.85-13.65 34.85-13.5L34.85-13.5Q33.9-13.4 32.95-13.2 32-13 31-12.5L31-12.5ZM66.8-12.5L66.8-2.45Q63.95-0.8 60.85 0.1 57.75 1 54.7 1L54.7 1Q51.4 1 48.4-0.13 45.4-1.25 43.05-3.55 40.7-5.85 39.35-9.33 38-12.8 38-17.5L38-17.5Q38-23.35 40.45-27.48 42.9-31.6 47.2-33.8 51.5-36 57-36L57-36Q59.6-36 62.22-35.52 64.85-35.05 67.3-33.85L67.3-33.85Q67.3-31.65 66.87-29.48 66.45-27.3 65.75-25.1L65.75-25.1Q65.6-25.05 65.42-25.05 65.25-25.05 65.1-25.05L65.1-25.05Q64.25-25.05 63.55-25.35L63.55-25.35 63-32.15Q59.7-33.4 56.65-33.4L56.65-33.4Q52.6-33.4 49.72-31.23 46.85-29.05 45.32-25.45 43.8-21.85 43.8-17.5L43.8-17.5Q43.8-12.9 45.12-9.33 46.45-5.75 49.1-3.7 51.75-1.65 55.65-1.65L55.65-1.65Q57.4-1.65 58.7-1.95 60-2.25 61.55-2.9L61.55-2.9 61.55-12.5 57.7-13.5Q57.65-13.7 57.65-14.05L57.65-14.05Q57.65-14.65 57.95-15.25L57.95-15.25Q59.3-15.2 61.07-15.1 62.85-15 64.25-15L64.25-15Q65.65-15 67.35-15.1 69.05-15.2 70.4-15.25L70.4-15.25Q70.7-14.65 70.7-14.05L70.7-14.05Q70.7-13.9 70.67-13.78 70.65-13.65 70.65-13.5L70.65-13.5Q69.7-13.4 68.75-13.2 67.8-13 66.8-12.5L66.8-12.5Z" opacity="1" transform="matrix(1,0,0,1,0,0)" fill="#00acc1" class="wordmark-text-0" data-fill-palette-color="primary" id="text-0"></path></svg></g></svg></g></svg></g></svg></g><g><svg viewBox="0 0 123.8680359936 144.0922058172745" height="144.0922058172745" width="123.8680359936"><g><svg xmlns="http://www.w3.org/2000/svg" xml:space="preserve" viewBox="19.14 14.040000000000003 61.860000126605414 71.96" x="0" y="0" height="144.0922058172745" width="123.8680359936" class="icon-icon-0" data-fill-palette-color="accent" id="icon-0"><path d="M27.865 36.246v4.056h6.977v-4.056c0-8.397 6.832-15.229 15.229-15.229S65.3 27.849 65.3 36.246v4.056h6.977v-4.056c0-12.244-9.961-22.206-22.205-22.206-12.245 0-22.207 9.961-22.207 22.206M81 51.348a3.955 3.955 0 0 1-3.955 3.955H23.096a3.956 3.956 0 0 1-3.956-3.955V46.7a3.956 3.956 0 0 1 3.956-3.956h53.949A3.955 3.955 0 0 1 81 46.7zM81 66.696a3.955 3.955 0 0 1-3.955 3.955H23.096a3.956 3.956 0 0 1-3.956-3.955v-4.647a3.955 3.955 0 0 1 3.956-3.955h53.949A3.955 3.955 0 0 1 81 62.049zM81 82.045A3.955 3.955 0 0 1 77.045 86H23.096a3.956 3.956 0 0 1-3.956-3.955v-4.647a3.956 3.956 0 0 1 3.956-3.956h53.949A3.956 3.956 0 0 1 81 77.398z" fill="#00acc1" data-fill-palette-color="accent"></path></svg></g></svg></g></svg></g></svg></g><g><path d="M0 123.6c0-68.262 55.338-123.6 123.6-123.6 49.05 0 91.427 28.572 111.395 69.98l-4.06 0c-19.687-39.333-60.358-66.337-107.335-66.337-66.251 0-119.957 53.707-119.957 119.957 0 66.251 53.707 119.957 119.957 119.957 46.978 0 87.648-27.004 107.335-66.337l4.06 0c-19.968 41.408-62.345 69.98-111.395 69.98-68.262 0-123.6-55.338-123.6-123.6z" fill="#00acc1" stroke="transparent" data-fill-palette-color="tertiary"></path></g></svg></g><defs></defs></svg><rect width="395.52" height="247.2" fill="none" stroke="none" visibility="hidden"></rect></g></svg></g></svg>